<svg width="34" height="34" viewBox="0 0 34 34" fill="none" xmlns="http://www.w3.org/2000/svg">
<g clip-path="url(#clip0_464_17)">
<path d="M16.8182 27.6708C10.6799 27.6708 5.68604 22.7268 5.68604 16.65C5.68604 10.5731 10.6799 5.62915 16.8182 5.62915C22.9565 5.62915 27.9503 10.573 27.9503 16.65C27.9503 22.7269 22.9565 27.6708 16.8182 27.6708Z" fill="#FABE2C"/>
<path d="M16.8182 31.8316C12.722 31.8316 8.87107 30.2525 5.97466 27.385C3.07825 24.5176 1.48315 20.7051 1.48315 16.6499C1.48315 12.5948 3.07825 8.78229 5.97473 5.91485C8.87107 3.04741 12.722 1.46826 16.8182 1.46826C20.9143 1.46826 24.7652 3.04741 27.6617 5.91485C30.5581 8.78229 32.1532 12.5948 32.1532 16.6499C32.1532 20.7051 30.5581 24.5176 27.6617 27.385C24.7652 30.2525 20.9143 31.8316 16.8182 31.8316ZM16.8182 3.41943C9.44919 3.41943 3.45404 9.35464 3.45404 16.6499C3.45404 23.9452 9.44919 29.8804 16.8182 29.8804C24.1872 29.8804 30.1823 23.9452 30.1823 16.6499C30.1823 9.35464 24.1872 3.41943 16.8182 3.41943Z" fill="#5C7099"/>
<path d="M6.6715 15.6744H0.98544C0.441214 15.6744 0 16.1112 0 16.65C0 17.1888 0.441214 17.6256 0.98544 17.6256H6.6715C7.21572 17.6256 7.65694 17.1888 7.65694 16.65C7.65694 16.1112 7.21572 15.6744 6.6715 15.6744Z" fill="#9EE2F8"/>
<path d="M27.6618 5.91485C24.8033 3.08507 21.0151 1.51106 16.9792 1.47021V3.42145C24.2743 3.50724 30.1824 9.40791 30.1824 16.6499C30.1824 23.7276 24.5395 29.5247 17.4739 29.8644V31.8172C21.3239 31.6579 24.9204 30.0989 27.6618 27.385C30.5582 24.5176 32.1533 20.7051 32.1533 16.6499C32.1533 12.5948 30.5582 8.7823 27.6618 5.91485Z" fill="#404A80"/>
<path d="M32.651 15.6744H26.9649C26.4207 15.6744 25.9795 16.1112 25.9795 16.65C25.9795 17.1888 26.4207 17.6256 26.9649 17.6256H32.651C33.1952 17.6256 33.6364 17.1888 33.6364 16.65C33.6364 16.1112 33.1952 15.6744 32.651 15.6744Z" fill="#5ECEF4"/>
<path d="M16.8182 25.7196C16.274 25.7196 15.8328 26.1564 15.8328 26.6952V32.3244C15.8328 32.8632 16.274 33.3 16.8182 33.3C17.3624 33.3 17.3624 25.7196 16.8182 25.7196Z" fill="#9EE2F8"/>
<path d="M16.8181 25.7196V33.3C17.3623 33.3 17.8036 32.8632 17.8036 32.3244V26.6952C17.8036 26.1564 17.3623 25.7196 16.8181 25.7196Z" fill="#5ECEF4"/>
<path d="M16.8182 0C16.274 0 15.8328 0.436802 15.8328 0.975586V6.60478C15.8328 7.14357 16.274 7.58037 16.8182 7.58037C17.3624 7.58037 17.3624 0 16.8182 0Z" fill="#9EE2F8"/>
<path d="M16.8181 0V7.58037C17.3623 7.58037 17.8036 7.14357 17.8036 6.60478V0.975586C17.8036 0.436802 17.3623 0 16.8181 0Z" fill="#5ECEF4"/>
<path d="M18.0816 15.5326C17.6618 15.3857 17.2197 15.2235 16.8181 15.0479V17.1522C17.0079 17.2236 17.2087 17.2966 17.4248 17.3722C18.3284 17.6884 18.3091 18.4109 18.2588 18.7069C18.1585 19.2979 17.6659 19.935 16.8182 19.9711V23.2285C17.3356 23.199 17.7463 22.7755 17.7463 22.2558V21.7864C18.2521 21.6421 18.7135 21.3862 19.1094 21.0261C19.6846 20.5029 20.0728 19.7942 20.2024 19.0304C20.4667 17.4747 19.6144 16.069 18.0816 15.5326Z" fill="#FABE2C"/>
<path d="M16.8191 9.77942V12.9392C17.3819 12.915 17.7697 13.1427 17.9328 13.2634C18.3686 13.586 18.9862 13.4978 19.3121 13.0662C19.638 12.6347 19.5488 12.0233 19.1129 11.7007C18.9185 11.5567 18.437 11.2446 17.7472 11.085V10.7521C17.7472 10.2325 17.3365 9.80895 16.8191 9.77942Z" fill="#FABE2C"/>
<g filter="url(#filter0_d_464_17)">
<path d="M22.498 15.344H18.358V11.1782C18.358 10.4417 17.7488 9.83862 17.0049 9.83862C16.2605 9.83862 15.6518 10.4417 15.6518 11.1782V15.344H11.4439C10.7 15.344 10.0908 15.9466 10.0908 16.6836C10.0908 17.42 10.6995 18.0231 11.4439 18.0231H15.6518V22.1218C15.6518 22.8587 16.2605 23.4613 17.0049 23.4613C17.7488 23.4613 18.358 22.8587 18.358 22.1218V18.0231H22.498C23.242 18.0231 23.8511 17.4205 23.8511 16.6836C23.8511 15.9466 23.2424 15.344 22.498 15.344Z" fill="#404A80"/>
<path d="M22.498 15.344H18.358V11.1782C18.358 10.4417 17.7488 9.83862 17.0049 9.83862C16.2605 9.83862 15.6518 10.4417 15.6518 11.1782V15.344H11.4439C10.7 15.344 10.0908 15.9466 10.0908 16.6836C10.0908 17.42 10.6995 18.0231 11.4439 18.0231H15.6518V22.1218C15.6518 22.8587 16.2605 23.4613 17.0049 23.4613C17.7488 23.4613 18.358 22.8587 18.358 22.1218V18.0231H22.498C23.242 18.0231 23.8511 17.4205 23.8511 16.6836C23.8511 15.9466 23.2424 15.344 22.498 15.344Z" fill="url(#paint0_linear_464_17)"/>
</g>
</g>
<defs>
<filter id="filter0_d_464_17" x="6.09082" y="9.83862" width="21.7603" height="21.6227" filterUnits="userSpaceOnUse" color-interpolation-filters="sRGB">
<feFlood flood-opacity="0" result="BackgroundImageFix"/>
<feColorMatrix in="SourceAlpha" type="matrix" values="0 0 0 0 0 0 0 0 0 0 0 0 0 0 0 0 0 0 127 0" result="hardAlpha"/>
<feOffset dy="4"/>
<feGaussianBlur stdDeviation="2"/>
<feColorMatrix type="matrix" values="0 0 0 0 0 0 0 0 0 0 0 0 0 0 0 0 0 0 0.25 0"/>
<feBlend mode="normal" in2="BackgroundImageFix" result="effect1_dropShadow_464_17"/>
<feBlend mode="normal" in="SourceGraphic" in2="effect1_dropShadow_464_17" result="shape"/>
</filter>
<linearGradient id="paint0_linear_464_17" x1="17.3532" y1="18.6934" x2="8.71867" y2="20.0055" gradientUnits="userSpaceOnUse">
<stop stop-color="#404A80"/>
<stop offset="1" stop-color="white" stop-opacity="0"/>
</linearGradient>
<clipPath id="clip0_464_17">
<rect width="33.6364" height="33.3" fill="white"/>
</clipPath>
</defs>
</svg>
